<?xml version="1.0" encoding="utf-8"?>
<!-- Generator: Adobe Illustrator 18.1.1, SVG Export Plug-In . SVG Version: 6.00 Build 0)  -->
<svg version="1.1" id="Layer_1" xmlns="http://www.w3.org/2000/svg" xmlns:xlink="http://www.w3.org/1999/xlink" x="0px" y="0px"
	 viewBox="0 0 200 200" enable-background="new 0 0 200 200" xml:space="preserve">
<g id="w_x2F__circle">
	<path fill="none" d="M101.2,192.1c-49.6,0-89.9-40.3-89.9-89.9c0-49.6,40.3-89.9,89.9-89.9c49.6,0,89.9,40.3,89.9,89.9
		C191.1,151.7,150.7,192.1,101.2,192.1L101.2,192.1z"/>
	<path fill="#FFFFFF" d="M84.6,143.8l1.1,0.4c4.9,1.8,10.1,2.7,15.4,2.7c4.8,0,9.6-0.8,14.1-2.3l3-1l-2.3-2.1c-1-1-1.9-1.9-2.6-2.8
		c-5.6-7.1-8.7-17.6-13.8-35.7l-1.3-4.8l-2.1,4.5c-0.8,1.8-1.7,3.7-2.6,5.8c-2.4,5.5-6.8,15.8-8.3,22.5c-0.5,2.3-0.8,5-0.8,7.8
		c0,1.1,0,2.3,0.2,3.6L84.6,143.8z"/>
	<path fill="#FFFFFF" d="M57.1,50.2h0.3c10.4,0,17.6,3.6,19.6,4.7c0.8,0.5,1.6,1,2.3,1.5l0.8,0.6l0.9-0.4c6.4-2.8,13.1-4.2,20-4.2
		c27.5,0,49.8,22.3,49.8,49.8c0,13.4-5.3,26-14.8,35.4l-2.7,2.7l3.8,0.4c2.5,0.3,5,0.4,7.3,0.4l0.3,0c7.8,0,18.8-1.5,27.2-8.5
		c3.1-2.7,5.7-5.8,7.7-9.6c1.8-6.6,2.7-13.6,2.7-20.8c0-44.9-36.4-81.3-81.3-81.3c-29,0-54.4,15.2-68.8,38.1
		C41.8,51.6,51.2,50.2,57.1,50.2z"/>
	<path fill="#FFFFFF" d="M145.5,150c-2.4,0-4.6-0.1-6.7-0.4c-6.3-0.8-10.5-1.7-14.1-2.9l-0.7-0.3l-0.7,0.3
		c-6.9,3.4-14.4,5.2-22.1,5.2c-27.5,0-49.8-22.3-49.8-49.8c0-14.3,6.2-28,17-37.4l2.6-2.3l-3.4-0.8c-3.2-0.8-6.3-1.1-9.3-1.1
		c-16.3,0.2-29.2,9-36.4,24.1c-1.3,5.7-1.9,11.6-1.9,17.6c0,44.9,36.4,81.3,81.3,81.3c28.5,0,53.5-14.7,68-36.8
		C160.8,148.9,152.5,150,145.5,150z"/>
	<path fill="#FFFFFF" d="M122.6,137.4c0.6,0.3,1.9,0.7,3.5,1.2l0.9,0.2l0.7-0.5c11.5-8.4,18.3-21.9,18.3-36.1
		c0-24.7-20.1-44.7-44.8-44.8h0h0c-4.8,0-9.5,0.8-14.1,2.3l-2.6,0.9l1.8,2.1c8.4,9.6,12.5,23.3,16.6,39l0,0l0,0.2
		c0.4,1.4,1.7,5.3,3.5,10.1c1.7,4.3,5,12.3,8.9,18.3C117.8,133.7,120.5,136.4,122.6,137.4z"/>
	<path fill="#FFFFFF" d="M96.8,96.5l0.3-0.7l-0.3-0.7c-0.6-1.6-1.3-3.4-2-5.3c-1.3-3.3-5.9-14.3-10.6-19.1c-1.8-1.9-4.1-3.7-6.8-5.2
		l-1-0.6l-1,0.7c-11.9,8.4-19,22.1-19,36.6c0,14.3,7,27.8,18.5,36.2l2.2,1.6l0.6-2.7c1.8-7.4,5.4-14.3,10.8-24.8
		C91,107.9,93.7,102.7,96.8,96.5z"/>
</g>
</svg>
