<?xml version="1.0" encoding="utf-8"?>
<!-- Generator: Adobe Illustrator 18.1.1, SVG Export Plug-In . SVG Version: 6.00 Build 0)  -->
<svg version="1.1" id="Layer_1" xmlns="http://www.w3.org/2000/svg" xmlns:xlink="http://www.w3.org/1999/xlink" x="0px" y="0px"
	 viewBox="0 0 200 200" enable-background="new 0 0 200 200" xml:space="preserve">
<g>
	<path fill="#F9F9FA" d="M11.6,134.4l14.8-16.5c6.1,6.7,12.1,10.7,19.6,10.7c8.9,0,14.4-5.4,14.4-17.7v-69h24.2v70.1
		c0,12.7-3.7,22.2-10.1,28.6c-6.6,6.6-16.2,9.9-27.8,9.9C29.9,150.4,18.9,143.1,11.6,134.4z"/>
	<path fill="#F9F9FA" d="M101.2,133.3l13.9-16.7c9.6,8,19.7,13,32,13c9.6,0,15.5-3.8,15.5-10.1v-0.3c0-6-3.7-9-21.6-13.6
		c-21.6-5.5-35.5-11.5-35.5-32.7v-0.3c0-19.4,15.6-32.3,37.5-32.3c15.6,0,28.9,4.9,39.8,13.6l-12.2,17.7
		c-9.5-6.6-18.8-10.6-27.8-10.6c-9,0-13.8,4.1-13.8,9.3v0.3c0,7,4.6,9.3,23.1,14.1c21.7,5.7,34,13.5,34,32.1v0.3
		c0,21.3-16.2,33.2-39.3,33.2C130.4,150.4,114.1,144.8,101.2,133.3z"/>
</g>
</svg>
